<?xml version="1.0" standalone="no"?>
<!DOCTYPE svg PUBLIC "-//W3C//DTD SVG 20010904//EN"
 "http://www.w3.org/TR/2001/REC-SVG-20010904/DTD/svg10.dtd">
<svg version="1.0" xmlns="http://www.w3.org/2000/svg"
 width="2500.000000pt" height="2500.000000pt" viewBox="0 0 2500.000000 2500.000000"
 preserveAspectRatio="xMidYMid meet">

<g transform="translate(0.000000,2500.000000) scale(0.100000,-0.100000)"
fill="#000000" stroke="none">
<path d="M12100 24704 c-795 -36 -1334 -99 -2010 -234 -2724 -545 -5185 -2012
-6974 -4159 -1589 -1907 -2553 -4236 -2775 -6706 -37 -407 -45 -613 -45 -1105
0 -882 67 -1572 234 -2410 399 -1998 1295 -3861 2614 -5435 321 -382 851 -931
1206 -1246 1661 -1478 3602 -2451 5740 -2879 837 -167 1528 -234 2410 -234
882 0 1573 67 2410 234 1730 346 3344 1056 4780 2102 826 602 1616 1349 2262
2139 1554 1903 2488 4188 2707 6624 37 407 45 613 45 1105 0 882 -67 1573
-234 2410 -527 2636 -1909 5012 -3953 6798 -1341 1173 -2956 2049 -4672 2537
-844 240 -1721 388 -2640 445 -168 11 -960 21 -1105 14z m730 -974 c1669 -55
3178 -430 4645 -1155 902 -446 1699 -983 2485 -1674 191 -167 742 -716 911
-906 688 -773 1255 -1612 1704 -2520 534 -1082 883 -2205 1049 -3385 147
-1040 147 -2140 0 -3180 -233 -1652 -836 -3231 -1765 -4625 -310 -464 -621
-868 -988 -1280 -289 -325 -850 -864 -1205 -1158 -889 -736 -1901 -1341 -2951
-1765 -1724 -696 -3592 -953 -5445 -751 -1789 195 -3488 812 -4985 1810 -463
309 -814 579 -1245 958 -191 167 -742 716 -911 906 -872 980 -1570 2099 -2047
3280 -679 1681 -935 3457 -766 5295 167 1816 800 3598 1825 5135 310 464 621
868 988 1280 169 190 720 739 911 906 786 691 1583 1228 2485 1674 1450 717
2990 1102 4609 1154 346 12 367 12 696 1z"/>
<path d="M11650 22504 c-392 -34 -885 -107 -1250 -185 l-51 -11 6 -41 c9 -58
25 -162 99 -637 36 -228 81 -518 101 -645 20 -126 47 -300 61 -385 13 -85 31
-195 39 -245 7 -49 21 -135 29 -190 21 -138 52 -330 82 -518 14 -87 23 -169
20 -182 -3 -13 0 -58 8 -102 8 -43 21 -123 30 -178 8 -55 36 -226 61 -380 25
-154 64 -390 86 -525 21 -135 46 -283 54 -330 8 -47 28 -170 45 -275 17 -104
39 -244 50 -310 11 -66 38 -232 60 -370 22 -137 44 -275 50 -305 5 -30 19
-111 30 -180 124 -774 137 -853 171 -1050 5 -30 22 -138 39 -240 30 -191 109
-677 135 -835 14 -82 54 -331 165 -1015 22 -135 67 -411 100 -615 34 -203 79
-480 101 -615 21 -135 53 -326 69 -425 16 -99 39 -238 50 -310 49 -307 101
-624 110 -675 10 -56 54 -326 110 -675 17 -104 46 -287 66 -405 120 -735 150
-923 200 -1230 8 -52 19 -120 24 -150 6 -30 26 -154 45 -275 20 -121 58 -355
85 -520 27 -165 61 -372 75 -460 23 -142 29 -162 50 -180 26 -21 29 -34 110
-575 9 -58 22 -145 30 -195 8 -49 35 -223 60 -385 41 -267 56 -358 86 -545 5
-33 14 -91 19 -130 5 -38 26 -171 45 -295 37 -232 86 -553 110 -720 8 -52 30
-196 50 -320 20 -124 40 -252 44 -285 9 -57 45 -290 75 -490 8 -49 22 -142 32
-205 24 -166 24 -166 65 -162 180 16 587 77 854 128 178 34 528 114 537 123 4
4 3 34 -2 66 -6 33 -17 103 -25 155 -8 52 -30 196 -50 320 -20 124 -42 270
-50 325 -8 55 -21 143 -29 195 -8 52 -22 140 -30 195 -26 170 -34 212 -45 232
-5 10 -17 70 -26 133 -9 63 -23 156 -30 205 -22 140 -43 280 -60 395 -15 99
-23 148 -59 385 -13 82 -77 503 -151 1000 -17 108 -41 267 -60 390 -7 50 -21
140 -30 200 -9 61 -22 151 -30 200 -7 50 -20 140 -29 200 -9 61 -23 151 -31
200 -8 50 -23 153 -35 230 -36 243 -49 328 -60 395 -6 36 -30 198 -55 360 -24
162 -54 358 -65 435 -12 77 -26 169 -31 205 -5 36 -13 92 -19 125 -10 64 -53
338 -76 495 -17 119 -28 189 -54 360 -26 172 -69 456 -80 540 -6 36 -14 92
-20 125 -5 33 -30 195 -55 360 -25 165 -52 343 -60 395 -31 199 -75 489 -89
590 -9 58 -23 150 -31 205 -9 55 -22 143 -30 195 -7 52 -28 187 -45 300 -18
113 -38 246 -45 295 -7 50 -20 135 -29 190 -8 55 -31 208 -51 340 -19 132 -42
281 -49 330 -8 50 -22 140 -30 200 -9 61 -21 135 -26 165 -5 30 -17 105 -26
165 -15 108 -27 188 -58 390 -31 204 -96 636 -112 748 -3 20 -12 43 -19 51 -8
7 -23 76 -35 152 -11 76 -31 211 -45 299 -13 88 -38 252 -55 365 -17 113 -37
248 -45 300 -33 215 -65 427 -71 465 -6 48 -30 205 -49 330 -32 206 -70 454
-169 1120 -42 275 -85 561 -96 635 -11 74 -25 167 -31 205 -5 39 -14 97 -19
130 -13 81 -31 205 -85 560 -25 165 -52 344 -60 398 -8 53 -22 142 -30 197 -8
55 -22 144 -30 198 -45 298 -68 448 -95 632 -17 113 -37 248 -45 300 -7 52
-23 156 -35 230 -12 74 -24 159 -27 188 l-6 52 -76 -1 c-42 -1 -146 -7 -231
-15z"/>
<path d="M14645 22298 c3 -7 12 -58 20 -113 8 -55 22 -143 30 -195 8 -52 22
-138 30 -190 8 -52 22 -138 30 -190 15 -91 27 -173 60 -387 8 -54 24 -156 35
-227 11 -72 18 -138 14 -148 -3 -10 2 -69 10 -131 20 -142 63 -457 82 -604 26
-204 43 -337 53 -413 6 -41 24 -176 40 -300 16 -124 32 -243 36 -265 8 -56 53
-397 70 -530 21 -163 44 -337 60 -450 7 -55 16 -125 20 -155 3 -30 10 -84 16
-120 10 -65 47 -344 75 -557 7 -62 21 -164 29 -225 16 -128 88 -666 110 -833
16 -111 32 -233 59 -445 8 -63 22 -167 30 -230 9 -63 27 -200 41 -305 13 -104
38 -291 55 -415 17 -124 37 -274 45 -335 8 -60 21 -162 29 -225 9 -63 34 -250
56 -415 21 -165 46 -352 55 -415 9 -63 22 -164 30 -225 8 -60 21 -164 30 -230
9 -66 20 -151 25 -190 5 -38 25 -191 45 -340 20 -148 40 -301 45 -340 5 -38
16 -122 25 -185 9 -63 22 -164 30 -225 8 -60 19 -144 24 -185 6 -41 26 -196
46 -345 20 -148 40 -304 46 -345 5 -41 16 -124 24 -185 8 -60 21 -162 30 -225
24 -177 45 -334 60 -455 8 -60 21 -162 30 -225 16 -117 39 -288 55 -415 5 -38
16 -122 25 -185 9 -63 22 -167 30 -230 8 -63 22 -164 30 -225 8 -60 22 -159
30 -220 26 -204 44 -340 55 -425 12 -88 19 -106 42 -97 14 5 17 21 54 302 8
61 22 160 30 220 8 61 17 126 19 145 3 19 14 105 25 190 11 85 27 205 35 265
8 61 19 144 25 185 6 41 17 125 25 185 37 286 56 431 91 690 8 61 21 160 29
220 29 224 65 493 80 605 9 63 22 167 31 230 8 63 22 165 30 225 8 61 19 148
24 195 6 47 12 94 15 105 2 11 11 74 19 140 9 66 27 206 41 310 14 105 32 240
40 300 15 115 36 273 61 460 8 61 21 160 29 220 43 332 86 659 95 720 5 39 17
122 25 185 8 63 26 201 40 305 14 105 32 242 41 305 35 272 84 641 94 710 13
96 57 423 75 565 12 95 28 213 86 645 5 41 16 125 24 185 21 165 73 554 80
600 10 73 56 419 66 500 5 44 13 109 19 145 9 61 17 128 55 415 8 66 20 152
25 190 5 39 17 122 25 185 8 63 26 201 40 305 14 105 33 242 41 305 8 63 19
147 24 185 5 39 23 171 39 295 33 251 55 412 77 575 8 61 17 133 21 161 l5 51
-218 145 c-988 657 -2045 1124 -3169 1398 -266 64 -266 64 -260 48z"/>
<path d="M6819 20774 c-1574 -1088 -2798 -2584 -3549 -4339 -918 -2144 -1050
-4602 -369 -6845 347 -1142 885 -2193 1611 -3152 66 -86 125 -161 131 -167 10
-8 17 17 30 107 10 64 22 140 27 167 6 28 23 133 40 235 99 623 124 775 160
990 5 30 28 165 50 300 38 235 56 347 135 835 54 332 92 568 130 800 19 116
48 296 65 400 17 105 51 314 76 465 25 151 63 385 85 520 22 135 58 355 80
490 22 135 49 301 60 370 11 69 24 150 29 180 6 30 23 138 40 240 16 102 47
295 69 430 22 135 49 304 61 375 11 72 24 155 30 185 6 30 28 168 50 305 39
240 62 380 149 915 22 135 50 304 61 375 21 129 51 313 155 955 31 184 75 461
100 615 25 154 52 318 60 365 17 95 98 595 171 1050 8 52 19 120 24 150 6 30
23 138 40 240 16 102 54 336 84 520 30 184 64 394 76 465 11 72 43 267 71 435
27 168 59 361 69 430 11 69 24 148 30 175 5 28 12 70 15 95 3 25 10 68 15 95
42 224 44 251 24 294 -11 22 -22 41 -25 41 -4 0 -76 -48 -160 -106z"/>
<path d="M20371 18628 c-6 -46 -18 -126 -26 -178 -24 -159 -43 -280 -59 -390
-9 -58 -22 -150 -31 -205 -8 -55 -27 -176 -41 -270 -14 -93 -32 -215 -40 -270
-9 -55 -22 -140 -29 -190 -7 -49 -21 -137 -30 -195 -9 -58 -29 -193 -45 -300
-16 -107 -37 -240 -45 -295 -9 -55 -20 -129 -25 -165 -5 -36 -17 -110 -25
-165 -9 -55 -22 -147 -31 -205 -24 -164 -38 -256 -103 -685 -76 -496 -109
-711 -121 -795 -5 -36 -19 -126 -30 -200 -11 -74 -39 -254 -61 -400 -23 -146
-47 -305 -54 -355 -42 -282 -112 -749 -121 -800 -5 -31 -54 -353 -80 -530 -9
-55 -22 -140 -29 -190 -7 -49 -30 -198 -49 -330 -20 -132 -43 -280 -50 -330
-15 -91 -35 -228 -62 -410 -8 -55 -19 -125 -24 -155 -5 -30 -15 -89 -21 -130
-5 -41 -17 -115 -24 -165 -34 -219 -127 -839 -141 -930 -7 -55 -21 -143 -29
-195 -8 -52 -22 -140 -30 -195 -8 -55 -21 -145 -30 -200 -18 -115 -29 -191
-49 -325 -22 -146 -125 -823 -142 -930 -8 -52 -21 -142 -30 -200 -34 -227 -43
-289 -59 -390 -9 -58 -29 -193 -45 -300 -16 -107 -48 -316 -70 -465 -23 -148
-48 -310 -55 -360 -35 -234 -99 -654 -120 -790 -8 -55 -22 -147 -31 -205 -8
-58 -21 -145 -29 -195 -7 -49 -21 -135 -29 -190 -13 -82 -14 -106 -3 -135 6
-20 17 -37 22 -38 21 -5 435 306 675 507 1233 1030 2191 2315 2820 3786 829
1936 1020 4137 539 6210 -280 1207 -802 2390 -1506 3407 -127 183 -375 518
-384 518 -4 0 -11 -37 -18 -82z"/>
<path d="M8667 17933 c-3 -5 -10 -47 -16 -93 -6 -47 -16 -114 -21 -150 -6 -36
-31 -213 -55 -395 -25 -181 -49 -359 -55 -395 -6 -36 -31 -213 -55 -395 -25
-181 -50 -359 -55 -395 -5 -36 -16 -114 -24 -175 -9 -60 -38 -274 -66 -475
-49 -350 -115 -828 -145 -1050 -8 -58 -35 -251 -60 -430 -25 -179 -50 -356
-55 -395 -5 -38 -16 -117 -24 -175 -8 -58 -22 -159 -31 -225 -9 -66 -20 -147
-25 -180 -5 -33 -19 -127 -30 -210 -11 -82 -24 -181 -30 -220 -6 -38 -24 -169
-40 -290 -17 -121 -37 -267 -45 -325 -18 -123 -23 -159 -70 -505 -19 -143 -39
-289 -45 -325 -13 -85 -33 -225 -70 -500 -17 -124 -35 -254 -40 -290 -5 -36
-19 -135 -30 -220 -11 -85 -27 -198 -35 -251 -8 -53 -15 -101 -15 -108 0 -8
305 -11 1165 -11 955 0 1165 2 1165 13 0 12 -23 189 -35 267 -3 19 -19 132
-35 250 -17 118 -32 231 -35 250 -24 160 -135 949 -341 2405 -30 215 -79 561
-109 770 -30 209 -88 623 -129 920 -42 297 -80 567 -86 600 -5 33 -30 209 -55
390 -25 182 -50 355 -55 385 -5 30 -14 91 -20 135 -9 76 -23 176 -56 400 -7
55 -18 134 -24 175 -10 72 -44 310 -75 530 -9 58 -22 152 -30 210 -9 58 -20
134 -25 170 -5 36 -15 103 -21 150 -22 160 -23 165 -41 168 -9 2 -18 -1 -21
-5z"/>
<path d="M7212 7433 c-7 -38 -23 -144 -37 -238 -21 -148 -57 -398 -195 -1345
-41 -278 -53 -360 -100 -680 -22 -151 -58 -401 -80 -555 -22 -154 -42 -292
-45 -307 -4 -24 7 -33 128 -116 1031 -699 2201 -1206 3408 -1476 187 -42 572
-116 603 -116 9 0 4 54 -21 218 -51 336 -91 597 -108 707 -9 55 -22 143 -30
195 -46 308 -76 496 -94 590 -6 30 -18 102 -26 160 -33 229 -45 309 -60 405
-8 55 -34 224 -56 375 -22 151 -51 349 -65 440 -14 91 -31 208 -39 260 -26
179 -97 645 -126 825 -11 72 -20 155 -20 185 0 44 -36 330 -65 508 l-5 32
-1478 0 -1478 0 -11 -67z"/>
</g>
</svg>
